<?xml version="1.0" encoding="utf-8"?>
<!-- Generator: Adobe Illustrator 24.2.3, SVG Export Plug-In . SVG Version: 6.00 Build 0)  -->
<svg version="1.1" id="Vrstva_1" xmlns="http://www.w3.org/2000/svg" xmlns:xlink="http://www.w3.org/1999/xlink" x="0px" y="0px"
	 viewBox="0 0 82.77 82.66" style="enable-background:new 0 0 82.77 82.66;" xml:space="preserve">
<style type="text/css">
	.st0{fill:#1D1D1B;}
	.st1{fill:#FFFFFF;}
	.st2{fill:#F982C9;}
</style>
<path class="st2" d="M77.27,58.48c2.71-5.21,4.24-11.09,4.24-17.32c0-21.38-17.95-38.72-40.1-38.72S1.31,19.77,1.31,41.16
	s17.95,38.72,40.1,38.72c2.11,0,4.18-0.16,6.2-0.46V58.48H77.27z"/>
<polygon class="st1" points="26.15,39.24 23.95,39.24 22.56,41.19 21.17,39.24 18.97,39.24 20.92,42.27 24.19,42.27 "/>
<path class="st1" d="M24.52,49.94c-0.48,0.54-1.12,0.8-1.92,0.8c-0.79,0-1.44-0.26-1.94-0.78c-0.5-0.52-0.75-1.18-0.75-1.98
	c0-0.81,0.25-1.47,0.75-1.98s1.13-0.77,1.9-0.77c0.49,0,0.93,0.11,1.32,0.33c0.38,0.22,0.68,0.52,0.88,0.89h2.42
	c-0.26-0.96-0.81-1.72-1.63-2.29s-1.82-0.85-2.98-0.85c-1.47,0-2.66,0.44-3.59,1.31c-0.93,0.87-1.39,2-1.39,3.38
	c0,1.37,0.46,2.49,1.38,3.37s2.12,1.32,3.6,1.32c1.5,0,2.71-0.44,3.62-1.33c0.91-0.89,1.33-2.04,1.24-3.46l0.02-0.02H25.1
	C25.19,48.72,24.99,49.41,24.52,49.94z"/>
<rect x="30.45" y="43.48" class="st1" width="2.25" height="9.01"/>
<polygon class="st1" points="34.53,39.24 31.93,39.24 29.98,42.27 32.25,42.27 "/>
<path class="st1" d="M42.46,47.1l-2.07-0.25c-0.71-0.1-1.06-0.38-1.06-0.87c0-0.32,0.13-0.58,0.4-0.76
	c0.26-0.18,0.62-0.27,1.06-0.27c0.85,0,1.38,0.31,1.57,0.94h2.29c-0.12-0.83-0.51-1.47-1.17-1.92c-0.66-0.45-1.56-0.68-2.69-0.68
	c-1.13,0-2.03,0.26-2.69,0.77c-0.66,0.51-0.99,1.19-0.99,2.05c0,1.33,0.89,2.12,2.69,2.34l2.09,0.25c0.73,0.1,1.1,0.41,1.1,0.94
	c0,0.39-0.17,0.69-0.52,0.92s-0.81,0.34-1.39,0.34c-0.72,0-1.3-0.18-1.74-0.53c-0.44-0.36-0.66-0.83-0.68-1.42h-2.31
	c0.02,1.12,0.47,2.02,1.33,2.7c0.87,0.68,1.98,1.02,3.34,1.02h0.02c1.26,0,2.28-0.29,3.05-0.87c0.77-0.58,1.15-1.34,1.15-2.29
	C45.23,48.14,44.31,47.33,42.46,47.1z"/>
<rect x="47.78" y="39.51" class="st1" width="2.25" height="12.98"/>
<path class="st1" d="M61.18,44.61c-0.94-0.88-2.13-1.32-3.59-1.32c-1.47,0-2.67,0.44-3.61,1.32c-0.94,0.88-1.41,2-1.41,3.37
	s0.47,2.49,1.41,3.37s2.14,1.32,3.61,1.32c1.45,0,2.65-0.44,3.59-1.32c0.94-0.88,1.41-2,1.41-3.37S62.12,45.49,61.18,44.61z"/>
<path class="st1" d="M19.98,26.77h-2.4v0.48c0,1.5,0.44,2.69,1.32,3.57c0.88,0.88,2.07,1.32,3.57,1.32l0.02,0.04
	c1.49,0,2.67-0.44,3.54-1.32c0.87-0.88,1.31-2.08,1.31-3.58v-0.5H19.98z"/>
<path class="st1" d="M47.57,23.66h2.13v-0.45c0-1.41-0.39-2.52-1.17-3.35c-0.78-0.82-1.84-1.23-3.17-1.23l-0.02-0.03
	c-1.32,0-2.37,0.41-3.15,1.24c-0.77,0.83-1.16,1.95-1.16,3.35v0.47H47.57z"/>
<rect x="25" y="19.38" class="st1" width="2.34" height="4.29"/>
<rect x="17.59" y="19.36" class="st1" width="2.4" height="4.3"/>
<rect x="33.02" y="26.77" class="st1" width="2.34" height="5.22"/>
<polygon class="st1" points="35.37,21.52 38.6,21.52 38.58,19.38 29.8,19.38 29.8,21.52 33.02,21.52 33.02,23.66 35.37,23.66 "/>
<rect x="41.03" y="26.77" class="st1" width="2.29" height="5.24"/>
<polygon class="st1" points="48.85,32 51.92,32 47.25,26.77 44.41,26.77 "/>
<rect x="53.95" y="26.77" class="st1" width="7.59" height="5.22"/>
<rect x="60.23" y="26.77" class="st1" width="2.34" height="5.22"/>
<rect x="29.78" y="19.36" class="st1" width="8.82" height="2.34"/>
<rect x="53.95" y="19.38" class="st1" width="7.59" height="4.29"/>
<rect x="60.23" y="19.38" class="st1" width="2.34" height="4.29"/>
<path class="st2" d="M72.08,61.5l3.43-0.01c0.63-0.98,1.22-1.98,1.76-3.01H47.61v20.94c3.02-0.45,5.92-1.24,8.68-2.31l-6.96-15.56
	L72.08,61.5z"/>
<path class="st1" d="M79.47,58.48l-5.17,0.01l-34.33,0.07l10.51,21.32C62.56,75.63,72.7,68.07,79.47,58.48z"/>
<g>
	<path class="st2" d="M58.72,70.62l-0.01-5.88h-1.98V63.5l1.01-0.05c0.33-0.01,0.57-0.09,0.73-0.25c0.16-0.16,0.25-0.4,0.28-0.73
		l0.02-0.25h1.46v8.4H58.72z"/>
</g>
</svg>
