<?xml version="1.0" encoding="utf-8"?>
<!-- Generator: Adobe Illustrator 24.2.3, SVG Export Plug-In . SVG Version: 6.00 Build 0)  -->
<svg version="1.1" id="Vrstva_1" xmlns="http://www.w3.org/2000/svg" xmlns:xlink="http://www.w3.org/1999/xlink" x="0px" y="0px"
	 viewBox="0 0 82.77 82.66" style="enable-background:new 0 0 82.77 82.66;" xml:space="preserve">
<style type="text/css">
	.st0{fill:#FF6FDD;}
	.st1{fill:#FFFFFF;}
	.st2{fill:#1D1D1B;}
	.st3{fill:#F982C9;}
</style>
<path class="st0" d="M41.41,2.44c-22.15,0-40.1,17.34-40.1,38.72s17.95,38.72,40.1,38.72c2.11,0,4.18-0.16,6.2-0.46
	c3.02-0.45,5.92-1.24,8.68-2.31l-6.96-15.56l22.76-0.05l3.43-0.01c0.63-0.98,1.22-1.98,1.76-3.01c2.71-5.21,4.24-11.09,4.24-17.32
	C81.51,19.77,63.56,2.44,41.41,2.44z"/>
<path class="st0" d="M41.41-108.37c-22.15,0-40.1,17.34-40.1,38.72s17.95,38.72,40.1,38.72c2.11,0,4.18-0.16,6.2-0.46
	c3.02-0.45,5.92-1.24,8.68-2.31l-6.96-15.56l22.76-0.05l3.43-0.01c0.63-0.98,1.22-1.98,1.76-3.01c2.71-5.21,4.24-11.09,4.24-17.32
	C81.51-91.04,63.56-108.37,41.41-108.37z"/>
<path class="st1" d="M78.51-51.32l-3.43,0.01l-25.76,0.05l0.71,20.33C58.04-34.03,74.02-44.32,78.51-51.32z"/>
<g>
	<path class="st2" d="M-272.74-119.24l-0.01-0.02c-1,0-1.79-0.29-2.38-0.88s-0.88-1.38-0.88-2.38v-5.26h1.6v5.23
		c0,0.57,0.15,1.02,0.45,1.34c0.3,0.33,0.71,0.49,1.22,0.49c0.51,0,0.92-0.16,1.22-0.49c0.3-0.33,0.45-0.77,0.45-1.33v-5.23h1.56
		v5.26c0,1-0.29,1.79-0.87,2.38S-271.75-119.24-272.74-119.24z"/>
	<path class="st2" d="M-262.42-127.76l0.01,1.43h-2.15v6.97h-1.56v-6.97h-2.15v-1.43H-262.42z"/>
	<path class="st2" d="M-255.94-119.36l-3.06-3.6h-0.62v3.61h-1.52v-8.4h3.54c0.78,0,1.42,0.22,1.9,0.67
		c0.48,0.44,0.72,1.03,0.72,1.75c0,0.65-0.2,1.19-0.59,1.61c-0.39,0.43-0.91,0.67-1.56,0.74l3.24,3.62H-255.94z M-259.63-126.48
		v2.42h1.68c0.41,0,0.73-0.11,0.97-0.33c0.24-0.22,0.36-0.51,0.36-0.88c0-0.37-0.12-0.66-0.36-0.88c-0.24-0.22-0.56-0.33-0.97-0.33
		H-259.63z"/>
	<path class="st2" d="M-248.08-127.76h1.56v8.4h-1.56v-3.78h-3.41v3.78h-1.56v-8.4h1.56v3.19h3.41V-127.76z"/>
	<path class="st2" d="M-269.74-108.03l-0.01,0.01c0.06,0.94-0.22,1.71-0.83,2.3c-0.61,0.59-1.41,0.89-2.41,0.89
		c-0.98,0-1.78-0.29-2.39-0.88s-0.92-1.33-0.92-2.24c0-0.92,0.31-1.67,0.92-2.25c0.62-0.58,1.41-0.87,2.39-0.87
		c0.78,0,1.44,0.19,1.99,0.56s0.91,0.88,1.09,1.52h-1.61c-0.14-0.25-0.33-0.45-0.59-0.59c-0.26-0.15-0.55-0.22-0.88-0.22
		c-0.51,0-0.93,0.17-1.27,0.52s-0.5,0.78-0.5,1.32s0.17,0.98,0.5,1.32c0.33,0.34,0.76,0.52,1.29,0.52c0.54,0,0.96-0.18,1.28-0.53
		c0.32-0.36,0.45-0.81,0.39-1.37H-269.74z M-274.08-111.76l-1.3-2.02h1.46l0.92,1.3l0.92-1.3h1.46l-1.31,2.02H-274.08z"/>
	<path class="st2" d="M-268.84-111.76l1.3-2.02h1.73l-1.51,2.02H-268.84z M-268.53-104.96v-6h1.5v6H-268.53z"/>
	<path class="st2" d="M-262.8-104.84h-0.01c-0.9,0-1.64-0.23-2.22-0.68c-0.58-0.45-0.87-1.05-0.89-1.79h1.54
		c0.01,0.39,0.16,0.71,0.45,0.94s0.68,0.35,1.16,0.35c0.38,0,0.69-0.08,0.92-0.23s0.35-0.36,0.35-0.61c0-0.35-0.24-0.56-0.73-0.62
		l-1.39-0.17c-1.19-0.15-1.79-0.67-1.79-1.56c0-0.57,0.22-1.02,0.66-1.36c0.44-0.34,1.04-0.51,1.79-0.51c0.75,0,1.35,0.15,1.79,0.45
		c0.44,0.3,0.7,0.73,0.78,1.28h-1.52c-0.13-0.42-0.48-0.62-1.04-0.62c-0.3,0-0.53,0.06-0.71,0.18c-0.18,0.12-0.26,0.29-0.26,0.5
		c0,0.32,0.24,0.51,0.71,0.58l1.38,0.17c1.23,0.15,1.85,0.69,1.85,1.61c0,0.63-0.26,1.14-0.77,1.52
		C-261.29-105.03-261.96-104.84-262.8-104.84z"/>
	<path class="st2" d="M-258.85-104.96v-8.64h1.5v8.64H-258.85z"/>
	<path class="st2" d="M-252.77-104.84c-0.98,0-1.78-0.29-2.4-0.88s-0.94-1.33-0.94-2.24s0.31-1.66,0.94-2.24s1.42-0.88,2.4-0.88
		c0.97,0,1.76,0.29,2.39,0.88s0.94,1.33,0.94,2.24s-0.31,1.66-0.94,2.24S-251.8-104.84-252.77-104.84z M-254.07-106.63
		c0.34,0.35,0.77,0.52,1.3,0.52c0.53,0,0.96-0.17,1.31-0.52c0.34-0.35,0.52-0.79,0.52-1.33s-0.17-0.98-0.52-1.33
		c-0.34-0.35-0.78-0.52-1.31-0.52c-0.53,0-0.96,0.17-1.3,0.52s-0.51,0.79-0.51,1.33S-254.41-106.98-254.07-106.63z"/>
</g>
<rect x="-132.13" y="-185" style="fill:none;" width="68.17" height="28.8"/>
<text transform="matrix(1 0 0 1 -132.1277 -176.3458)"><tspan x="0" y="0" class="st2" style="font-family:'Spoof-Medium'; font-size:12px;">UTRH</tspan><tspan x="0" y="14.4" class="st2" style="font-family:'Spoof-Medium'; font-size:12px;">číslo</tspan></text>
<rect x="-279.05" y="-124.9" class="st1" width="33.83" height="2.07"/>
<ellipse class="st3" cx="-56.29" cy="-73.62" rx="40.1" ry="38.72"/>
<path class="st1" d="M-77.96-88.14h-2.4v0.48c0,1.5,0.44,2.69,1.32,3.57c0.88,0.88,2.07,1.32,3.57,1.32l0.02,0.04
	c1.49,0,2.67-0.44,3.54-1.32c0.87-0.88,1.31-2.08,1.31-3.58v-0.5H-77.96z"/>
<path class="st1" d="M-50.38-91.25h2.13v-0.45c0-1.41-0.39-2.52-1.17-3.35c-0.78-0.82-1.84-1.23-3.17-1.23l-0.02-0.03
	c-1.32,0-2.37,0.41-3.15,1.24c-0.77,0.83-1.16,1.95-1.16,3.35v0.47H-50.38z"/>
<rect x="-72.95" y="-95.54" class="st1" width="2.34" height="4.29"/>
<rect x="-80.36" y="-95.56" class="st1" width="2.4" height="4.3"/>
<rect x="-64.92" y="-88.14" class="st1" width="2.34" height="5.22"/>
<polygon class="st1" points="-62.57,-93.39 -59.35,-93.39 -59.37,-95.54 -68.15,-95.54 -68.15,-93.39 -64.92,-93.39 -64.92,-91.25 
	-62.57,-91.25 "/>
<rect x="-56.91" y="-88.14" class="st1" width="2.29" height="5.24"/>
<polygon class="st1" points="-49.09,-82.92 -46.02,-82.92 -50.69,-88.14 -53.53,-88.14 "/>
<rect x="-43.99" y="-88.14" class="st1" width="7.59" height="5.22"/>
<rect x="-37.71" y="-88.14" class="st1" width="2.34" height="5.22"/>
<rect x="-68.17" y="-95.56" class="st1" width="8.82" height="2.34"/>
<rect x="-43.99" y="-95.54" class="st1" width="7.59" height="4.29"/>
<rect x="-37.71" y="-95.54" class="st1" width="2.34" height="4.29"/>
<polygon class="st1" points="-71.44,-76.45 -73.29,-76.45 -74.46,-74.81 -75.63,-76.45 -77.48,-76.45 -75.84,-73.9 -73.1,-73.9 "/>
<path class="st1" d="M-73.27-66.45c-0.4,0.45-0.94,0.68-1.62,0.68c-0.67,0-1.21-0.22-1.63-0.65c-0.42-0.43-0.63-0.99-0.63-1.67
	c0-0.68,0.21-1.23,0.63-1.67s0.95-0.65,1.6-0.65c0.41,0,0.78,0.09,1.11,0.28c0.32,0.19,0.57,0.44,0.74,0.75h2.03
	c-0.22-0.81-0.68-1.45-1.37-1.93c-0.69-0.48-1.53-0.71-2.51-0.71c-1.23,0-2.24,0.37-3.02,1.1c-0.78,0.73-1.17,1.68-1.17,2.84
	c0,1.15,0.39,2.1,1.16,2.84c0.77,0.74,1.78,1.11,3.03,1.11c1.26,0,2.28-0.37,3.05-1.12c0.77-0.75,1.12-1.72,1.05-2.91l0.01-0.01
	h-1.97C-72.7-67.48-72.87-66.9-73.27-66.45z"/>
<rect x="-67.33" y="-71.89" class="st1" width="1.9" height="7.58"/>
<polygon class="st1" points="-63.45,-76.45 -65.63,-76.45 -67.27,-73.9 -65.36,-73.9 "/>
<path class="st1" d="M-73.28-53.67l-1.74-0.21c-0.6-0.08-0.89-0.32-0.89-0.73c0-0.27,0.11-0.49,0.33-0.64
	c0.22-0.15,0.52-0.23,0.89-0.23c0.72,0,1.16,0.26,1.32,0.79h1.93c-0.1-0.7-0.43-1.24-0.99-1.61c-0.56-0.38-1.31-0.57-2.26-0.57
	c-0.95,0-1.7,0.21-2.26,0.64c-0.56,0.43-0.83,1-0.83,1.72c0,1.12,0.75,1.78,2.26,1.97l1.76,0.21c0.62,0.08,0.93,0.34,0.93,0.79
	c0,0.32-0.15,0.58-0.44,0.77c-0.29,0.19-0.68,0.29-1.17,0.29c-0.61,0-1.09-0.15-1.46-0.45c-0.37-0.3-0.56-0.69-0.57-1.19h-1.94
	c0.02,0.94,0.39,1.7,1.12,2.27c0.73,0.57,1.66,0.86,2.81,0.86h0.02c1.06,0,1.92-0.24,2.56-0.73c0.65-0.49,0.97-1.13,0.97-1.93
	C-70.94-52.8-71.72-53.48-73.28-53.67z"/>
<rect x="-67.33" y="-59.76" class="st1" width="1.9" height="10.92"/>
<path class="st1" d="M-55.78-55.47c-0.79-0.74-1.79-1.11-3.02-1.11c-1.23,0-2.24,0.37-3.03,1.11c-0.79,0.74-1.18,1.68-1.18,2.84
	s0.39,2.1,1.18,2.84c0.79,0.74,1.8,1.11,3.03,1.11c1.22,0,2.23-0.37,3.02-1.11c0.79-0.74,1.18-1.68,1.18-2.84
	S-54.99-54.73-55.78-55.47z"/>
<rect x="-48.24" y="-72.02" class="st1" width="33.22" height="37.12"/>
<g>
	<path class="st3" d="M-37.35-48.79l-0.02-8.86h-2.98v-1.86l1.52-0.07c0.49-0.01,0.86-0.14,1.1-0.38c0.24-0.24,0.38-0.61,0.42-1.1
		l0.04-0.38h2.21v12.66H-37.35z"/>
</g>
<ellipse class="st3" cx="-178.53" cy="-70.56" rx="40.1" ry="38.72"/>
<path class="st1" d="M-197.17-80.98h-2.03v0.41c0,1.27,0.37,2.28,1.11,3.02c0.74,0.74,1.75,1.11,3.02,1.11l0.01,0.03
	c1.26,0,2.26-0.37,2.99-1.12c0.74-0.75,1.11-1.75,1.11-3.02v-0.42H-197.17z"/>
<path class="st1" d="M-174.13-83.61h1.9v-0.38c0-1.19-0.35-2.13-1.04-2.83c-0.7-0.7-1.64-1.04-2.83-1.04l-0.01-0.03
	c-1.18,0-2.12,0.35-2.81,1.05c-0.69,0.7-1.04,1.65-1.04,2.84v0.4H-174.13z"/>
<rect x="-192.93" y="-87.23" class="st1" width="1.98" height="3.62"/>
<rect x="-199.2" y="-87.25" class="st1" width="2.03" height="3.64"/>
<rect x="-186.64" y="-80.98" class="st1" width="1.98" height="4.41"/>
<polygon class="st1" points="-184.66,-85.42 -181.93,-85.42 -181.94,-87.23 -189.37,-87.23 -189.37,-85.42 -186.64,-85.42 
	-186.64,-83.61 -184.66,-83.61 "/>
<rect x="-179.96" y="-80.98" class="st1" width="1.94" height="4.43"/>
<polygon class="st1" points="-173.35,-76.56 -170.76,-76.56 -174.7,-80.98 -177.1,-80.98 "/>
<rect x="-169.04" y="-80.98" class="st1" width="1.98" height="4.41"/>
<rect x="-163.73" y="-80.98" class="st1" width="1.98" height="4.41"/>
<rect x="-169.04" y="-87.23" class="st1" width="1.98" height="3.62"/>
<rect x="-163.73" y="-87.23" class="st1" width="1.98" height="3.62"/>
<polygon class="st1" points="-192.34,-69.48 -194.2,-69.48 -195.37,-67.83 -196.54,-69.48 -198.4,-69.48 -196.76,-66.92 
	-194,-66.92 "/>
<path class="st1" d="M-193.72-60.43c-0.4,0.45-0.94,0.68-1.62,0.68c-0.67,0-1.22-0.22-1.64-0.66c-0.42-0.44-0.63-0.99-0.63-1.68
	s0.21-1.24,0.63-1.68c0.42-0.44,0.96-0.65,1.61-0.65c0.42,0,0.79,0.09,1.11,0.28c0.32,0.19,0.57,0.44,0.75,0.75h2.04
	c-0.22-0.81-0.68-1.46-1.38-1.93s-1.54-0.72-2.52-0.72c-1.24,0-2.25,0.37-3.03,1.11c-0.78,0.74-1.17,1.69-1.17,2.86
	c0,1.16,0.39,2.11,1.17,2.85c0.78,0.74,1.79,1.11,3.04,1.11c1.27,0,2.29-0.38,3.06-1.13c0.77-0.75,1.12-1.73,1.05-2.93l0.01-0.01
	h-1.98C-193.15-61.47-193.31-60.88-193.72-60.43z"/>
<rect x="-188.7" y="-65.9" class="st1" width="1.9" height="7.62"/>
<polygon class="st1" points="-185.26,-69.48 -187.45,-69.48 -189.1,-66.92 -187.18,-66.92 "/>
<path class="st1" d="M-179.23-62.83l-1.75-0.21c-0.6-0.08-0.9-0.32-0.9-0.73c0-0.27,0.11-0.49,0.34-0.64
	c0.22-0.15,0.52-0.23,0.9-0.23c0.72,0,1.16,0.26,1.33,0.79h1.94c-0.1-0.7-0.43-1.24-0.99-1.62c-0.56-0.38-1.32-0.57-2.27-0.57
	c-0.96,0-1.71,0.22-2.27,0.65c-0.56,0.43-0.84,1.01-0.84,1.73c0,1.13,0.76,1.79,2.27,1.98l1.77,0.21c0.62,0.08,0.93,0.35,0.93,0.79
	c0,0.33-0.15,0.58-0.44,0.78c-0.29,0.19-0.69,0.29-1.17,0.29c-0.61,0-1.1-0.15-1.47-0.45s-0.56-0.7-0.57-1.2h-1.95
	c0.02,0.95,0.4,1.71,1.13,2.28c0.73,0.57,1.67,0.86,2.82,0.86h0.02c1.07,0,1.92-0.24,2.58-0.73c0.65-0.49,0.98-1.13,0.98-1.94
	C-176.88-61.96-177.66-62.64-179.23-62.83z"/>
<rect x="-175.4" y="-69.25" class="st1" width="1.9" height="10.97"/>
<path class="st1" d="M-163.66-64.94c-0.79-0.74-1.8-1.11-3.03-1.11c-1.24,0-2.26,0.37-3.05,1.11s-1.19,1.69-1.19,2.85
	s0.4,2.11,1.19,2.85s1.81,1.11,3.05,1.11c1.23,0,2.24-0.37,3.03-1.11s1.19-1.69,1.19-2.85S-162.87-64.19-163.66-64.94z"/>
<rect x="-192.04" y="-170.6" class="st1" width="27.38" height="26.21"/>
<rect x="-190.9" y="-166.51" style="fill:none;" width="27.06" height="15.83"/>
<text transform="matrix(1 0 0 1 -190.9007 -157.8589)" class="st3" style="font-family:'Spoof-Medium'; font-size:12px;">1</text>
<polygon class="st1" points="26.15,39.24 23.95,39.24 22.56,41.19 21.17,39.24 18.97,39.24 20.92,42.27 24.19,42.27 "/>
<path class="st1" d="M24.52,49.94c-0.48,0.54-1.12,0.8-1.92,0.8c-0.79,0-1.44-0.26-1.94-0.78c-0.5-0.52-0.75-1.18-0.75-1.98
	c0-0.81,0.25-1.47,0.75-1.98s1.13-0.77,1.9-0.77c0.49,0,0.93,0.11,1.32,0.33c0.38,0.22,0.68,0.52,0.88,0.89h2.42
	c-0.26-0.96-0.81-1.72-1.63-2.29s-1.82-0.85-2.98-0.85c-1.47,0-2.66,0.44-3.59,1.31c-0.93,0.87-1.39,2-1.39,3.38
	c0,1.37,0.46,2.49,1.38,3.37s2.12,1.32,3.6,1.32c1.5,0,2.71-0.44,3.62-1.33c0.91-0.89,1.33-2.04,1.24-3.46l0.02-0.02H25.1
	C25.19,48.72,24.99,49.41,24.52,49.94z"/>
<rect x="30.45" y="43.48" class="st1" width="2.25" height="9.01"/>
<polygon class="st1" points="34.53,39.24 31.93,39.24 29.98,42.27 32.25,42.27 "/>
<path class="st1" d="M42.46,47.1l-2.07-0.25c-0.71-0.1-1.06-0.38-1.06-0.87c0-0.32,0.13-0.58,0.4-0.76
	c0.26-0.18,0.62-0.27,1.06-0.27c0.85,0,1.38,0.31,1.57,0.94h2.29c-0.12-0.83-0.51-1.47-1.17-1.92c-0.66-0.45-1.56-0.68-2.69-0.68
	c-1.13,0-2.03,0.26-2.69,0.77c-0.66,0.51-0.99,1.19-0.99,2.05c0,1.33,0.89,2.12,2.69,2.34l2.09,0.25c0.73,0.1,1.1,0.41,1.1,0.94
	c0,0.39-0.17,0.69-0.52,0.92s-0.81,0.34-1.39,0.34c-0.72,0-1.3-0.18-1.74-0.53c-0.44-0.36-0.66-0.83-0.68-1.42h-2.31
	c0.02,1.12,0.47,2.02,1.33,2.7c0.87,0.68,1.98,1.02,3.34,1.02h0.02c1.26,0,2.28-0.29,3.05-0.87c0.77-0.58,1.15-1.34,1.15-2.29
	C45.23,48.14,44.31,47.33,42.46,47.1z"/>
<rect x="47.78" y="39.51" class="st1" width="2.25" height="12.98"/>
<path class="st1" d="M61.18,44.61c-0.94-0.88-2.13-1.32-3.59-1.32c-1.47,0-2.67,0.44-3.61,1.32c-0.94,0.88-1.41,2-1.41,3.37
	s0.47,2.49,1.41,3.37s2.14,1.32,3.61,1.32c1.45,0,2.65-0.44,3.59-1.32c0.94-0.88,1.41-2,1.41-3.37S62.12,45.49,61.18,44.61z"/>
<g>
	<path class="st1" d="M117.59-40.23l-0.01-5.88h-1.98v-1.24l1.01-0.05c0.33-0.01,0.57-0.09,0.73-0.25c0.16-0.16,0.25-0.4,0.28-0.73
		l0.02-0.25h1.46v8.4H117.59z"/>
</g>
<path class="st1" d="M19.98,26.77h-2.4v0.48c0,1.5,0.44,2.69,1.32,3.57c0.88,0.88,2.07,1.32,3.57,1.32l0.02,0.04
	c1.49,0,2.67-0.44,3.54-1.32c0.87-0.88,1.31-2.08,1.31-3.58v-0.5H19.98z"/>
<path class="st1" d="M47.57,23.66h2.13v-0.45c0-1.41-0.39-2.52-1.17-3.35c-0.78-0.82-1.84-1.23-3.17-1.23l-0.02-0.03
	c-1.32,0-2.37,0.41-3.15,1.24c-0.77,0.83-1.16,1.95-1.16,3.35v0.47H47.57z"/>
<rect x="25" y="19.38" class="st1" width="2.34" height="4.29"/>
<rect x="17.59" y="19.36" class="st1" width="2.4" height="4.3"/>
<rect x="33.02" y="26.77" class="st1" width="2.34" height="5.22"/>
<polygon class="st1" points="35.37,21.52 38.6,21.52 38.58,19.38 29.8,19.38 29.8,21.52 33.02,21.52 33.02,23.66 35.37,23.66 "/>
<rect x="41.03" y="26.77" class="st1" width="2.29" height="5.24"/>
<polygon class="st1" points="48.85,32 51.92,32 47.25,26.77 44.41,26.77 "/>
<rect x="53.95" y="26.77" class="st1" width="7.59" height="5.22"/>
<rect x="60.23" y="26.77" class="st1" width="2.34" height="5.22"/>
<rect x="29.78" y="19.36" class="st1" width="8.82" height="2.34"/>
<rect x="53.95" y="19.38" class="st1" width="7.59" height="4.29"/>
<rect x="60.23" y="19.38" class="st1" width="2.34" height="4.29"/>
<path class="st1" d="M80.75,58.49l-32.59,0.06l6.94,23.04c8.8-3.09,18.45-8.85,25.66-15.46C80.78,63.59,80.77,61.04,80.75,58.49z"/>
<g>
	<path class="st0" d="M58.72,70.62l-0.01-5.88h-1.98V63.5l1.01-0.05c0.33-0.01,0.57-0.09,0.73-0.25c0.16-0.16,0.25-0.4,0.28-0.73
		l0.02-0.25h1.46v8.4H58.72z"/>
</g>
<polygon class="st1" points="26.15,-71.57 23.95,-71.57 22.56,-69.62 21.17,-71.57 18.97,-71.57 20.92,-68.54 24.19,-68.54 "/>
<path class="st1" d="M24.52-59.87c-0.48,0.54-1.12,0.8-1.92,0.8c-0.79,0-1.44-0.26-1.94-0.78c-0.5-0.52-0.75-1.18-0.75-1.98
	c0-0.81,0.25-1.47,0.75-1.98c0.5-0.52,1.13-0.77,1.9-0.77c0.49,0,0.93,0.11,1.32,0.33c0.38,0.22,0.68,0.52,0.88,0.89h2.42
	c-0.26-0.96-0.81-1.72-1.63-2.29s-1.82-0.85-2.98-0.85c-1.47,0-2.66,0.44-3.59,1.31c-0.93,0.87-1.39,2-1.39,3.38
	c0,1.37,0.46,2.49,1.38,3.37s2.12,1.32,3.6,1.32c1.5,0,2.71-0.44,3.62-1.33c0.91-0.89,1.33-2.04,1.24-3.46l0.02-0.02H25.1
	C25.19-61.09,24.99-60.4,24.52-59.87z"/>
<rect x="30.45" y="-66.33" class="st1" width="2.25" height="9.01"/>
<polygon class="st1" points="34.53,-71.57 31.93,-71.57 29.98,-68.54 32.25,-68.54 "/>
<path class="st1" d="M42.46-62.71l-2.07-0.25c-0.71-0.1-1.06-0.38-1.06-0.87c0-0.32,0.13-0.58,0.4-0.76
	c0.26-0.18,0.62-0.27,1.06-0.27c0.85,0,1.38,0.31,1.57,0.94h2.29c-0.12-0.83-0.51-1.47-1.17-1.92c-0.66-0.45-1.56-0.68-2.69-0.68
	c-1.13,0-2.03,0.26-2.69,0.77c-0.66,0.51-0.99,1.19-0.99,2.05c0,1.33,0.89,2.12,2.69,2.34l2.09,0.25c0.73,0.1,1.1,0.41,1.1,0.94
	c0,0.39-0.17,0.69-0.52,0.92c-0.35,0.23-0.81,0.34-1.39,0.34c-0.72,0-1.3-0.18-1.74-0.53c-0.44-0.36-0.66-0.83-0.68-1.42h-2.31
	c0.02,1.12,0.47,2.02,1.33,2.7c0.87,0.68,1.98,1.02,3.34,1.02h0.02c1.26,0,2.28-0.29,3.05-0.87c0.77-0.58,1.15-1.34,1.15-2.29
	C45.23-61.67,44.31-62.48,42.46-62.71z"/>
<rect x="47.78" y="-72.16" class="st1" width="2.25" height="14.85"/>
<path class="st1" d="M61.18-65.19c-0.94-0.88-2.13-1.32-3.59-1.32c-1.47,0-2.67,0.44-3.61,1.32c-0.94,0.88-1.41,2-1.41,3.37
	s0.47,2.49,1.41,3.37s2.14,1.32,3.61,1.32c1.45,0,2.65-0.44,3.59-1.32c0.94-0.88,1.41-2,1.41-3.37S62.12-64.32,61.18-65.19z"/>
<path class="st1" d="M19.98-84.03h-2.4v0.48c0,1.5,0.44,2.69,1.32,3.57c0.88,0.88,2.07,1.32,3.57,1.32l0.02,0.04
	c1.49,0,2.67-0.44,3.54-1.32c0.87-0.88,1.31-2.08,1.31-3.58v-0.5H19.98z"/>
<path class="st1" d="M47.57-87.15h2.13v-0.45c0-1.41-0.39-2.52-1.17-3.35c-0.78-0.82-1.84-1.23-3.17-1.23l-0.02-0.03
	c-1.32,0-2.37,0.41-3.15,1.24c-0.77,0.83-1.16,1.95-1.16,3.35v0.47H47.57z"/>
<rect x="25" y="-91.43" class="st1" width="2.34" height="4.29"/>
<rect x="17.59" y="-91.45" class="st1" width="2.4" height="4.3"/>
<rect x="33.02" y="-84.03" class="st1" width="2.34" height="5.22"/>
<polygon class="st1" points="35.37,-89.29 38.6,-89.29 38.58,-91.43 29.8,-91.43 29.8,-89.29 33.02,-89.29 33.02,-87.15 
	35.37,-87.15 "/>
<rect x="41.03" y="-84.03" class="st1" width="2.29" height="5.24"/>
<polygon class="st1" points="48.85,-78.81 51.92,-78.81 47.25,-84.03 44.41,-84.03 "/>
<rect x="53.95" y="-84.03" class="st1" width="7.59" height="5.22"/>
<rect x="60.23" y="-84.03" class="st1" width="2.34" height="5.22"/>
<rect x="29.78" y="-91.45" class="st1" width="8.82" height="2.34"/>
<rect x="53.95" y="-91.43" class="st1" width="7.59" height="4.29"/>
<rect x="60.23" y="-91.43" class="st1" width="2.34" height="4.29"/>
<g>
	<path class="st0" d="M57.98-38.69l-0.01-5.88h-1.98v-1.24L57-45.86c0.33-0.01,0.57-0.09,0.73-0.25c0.16-0.16,0.25-0.4,0.28-0.73
		l0.02-0.25h1.46v8.4H57.98z"/>
</g>
</svg>
